{"asset":{"version":"2.0","generator":"Blockbench 5.1.4 glTF exporter"},"scenes":[{"nodes":[10],"name":"blockbench_export"}],"scene":0,"nodes":[{"translation":[0,0.14999999999999988,0],"name":"left_calf"},{"rotation":[0,0,-0.9998476951563913,0.0174524064372836],"translation":[-0.037500000000000006,0.2874999999999999,0],"name":"left_thigh","children":[0]},{"rotation":[0,0,0.15643446504023087,0.9876883405951378],"translation":[0,0.1312499999999999,0],"name":"left_lowerarm"},{"rotation":[0,0,0.9612616959383189,0.27563735581699916],"translation":[-0.0625,0.5124999999999997,0],"name":"left_upperarm","children":[2]},{"translation":[0,0.20624999999999993,0],"name":"head"},{"translation":[0,0.3500000000000002,0],"name":"body","children":[4]},{"rotation":[0,0,-0.15643446504023087,0.9876883405951378],"translation":[0,0.1312499999999999,0],"name":"right_lowerarm"},{"rotation":[0,0,-0.9612616959383189,0.27563735581699916],"translation":[0.0625,0.5124999999999997,0],"name":"right_upperarm","children":[6]},{"translation":[0,0.14999999999999988,0],"name":"right_calf"},{"rotation":[0,0,0.9998476951563913,0.0174524064372836],"translation":[0.037500000000000006,0.2874999999999999,0],"name":"right_thigh","children":[8]},{"name":"armature","mesh":0,"children":[1,3,5,7,9],"skin":0}],"bufferViews":[{"buffer":0,"byteOffset":0,"byteLength":24720,"target":34962,"byteStride":12},{"buffer":0,"byteOffset":24720,"byteLength":24720,"target":34962,"byteStride":12},{"buffer":0,"byteOffset":49440,"byteLength":16480,"target":34962,"byteStride":8},{"buffer":0,"byteOffset":65920,"byteLength":16480,"target":34962,"byteStride":8},{"buffer":0,"byteOffset":82400,"byteLength":32960,"target":34962,"byteStride":16},{"buffer":0,"byteOffset":115360,"byteLength":204,"target":34963},{"buffer":0,"byteOffset":115564,"byteLength":192,"target":34963},{"buffer":0,"byteOffset":115756,"byteLength":120,"target":34963},{"buffer":0,"byteOffset":115876,"byteLength":192,"target":34963},{"buffer":0,"byteOffset":116068,"byteLength":344,"target":34963},{"buffer":0,"byteOffset":116412,"byteLength":716,"target":34963},{"buffer":0,"byteOffset":117128,"byteLength":960,"target":34963},{"buffer":0,"byteOffset":118088,"byteLength":636,"target":34963},{"buffer":0,"byteOffset":118724,"byteLength":348,"target":34963},{"buffer":0,"byteOffset":119072,"byteLength":716,"target":34963},{"buffer":0,"byteOffset":119788,"byteLength":960,"target":34963},{"buffer":0,"byteOffset":120748,"byteLength":636,"target":34963},{"buffer":0,"byteOffset":121384,"byteLength":8,"target":34963},{"buffer":0,"byteOffset":121392,"byteLength":640},{"buffer":0,"byteOffset":122032,"byteLength":12},{"buffer":0,"byteOffset":122044,"byteLength":48},{"buffer":0,"byteOffset":122092,"byteLength":12},{"buffer":0,"byteOffset":122104,"byteLength":48},{"buffer":0,"byteOffset":122152,"byteLength":12},{"buffer":0,"byteOffset":122164,"byteLength":48},{"buffer":0,"byteOffset":122212,"byteLength":12},{"buffer":0,"byteOffset":122224,"byteLength":48},{"buffer":0,"byteOffset":122272,"byteLength":12},{"buffer":0,"byteOffset":122284,"byteLength":48},{"buffer":0,"byteOffset":122332,"byteLength":12},{"buffer":0,"byteOffset":122344,"byteLength":48},{"buffer":0,"byteOffset":122392,"byteLength":12},{"buffer":0,"byteOffset":122404,"byteLength":48}],"buffers":[{"byteLength":122452,"uri":"data:application/octet-stream;base64,"}],"accessors":[{"bufferView":0,"componentType":5126,"count":2060,"max":[0.1977124959230423,0.7250000238418579,0.10000000149011612],"min":[-0.1977124959230423,-0.01339375413954258,-0.07974187284708023],"type":"VEC3"},{"bufferView":1,"componentType":5126,"count":2060,"max":[1,1,1],"min":[-1,-1,-1],"type":"VEC3"},{"bufferView":2,"componentType":5126,"count":2060,"max":[0.703125,0.6735843420028687],"min":[0,0],"type":"VEC2"},{"bufferView":3,"componentType":5123,"count":2060,"max":[9,9,0,0],"min":[0,0,0,0],"type":"VEC4"},{"bufferView":4,"componentType":5126,"count":2060,"max":[1,0.18410556018352509,0,0],"min":[0,0,0,0],"type":"VEC4"},{"bufferView":5,"componentType":5123,"count":102,"max":[69],"min":[0],"type":"SCALAR"},{"bufferView":6,"componentType":5123,"count":96,"max":[133],"min":[70],"type":"SCALAR"},{"bufferView":7,"componentType":5123,"count":60,"max":[173],"min":[134],"type":"SCALAR"},{"bufferView":8,"componentType":5123,"count":96,"max":[241],"min":[174],"type":"SCALAR"},{"bufferView":9,"componentType":5123,"count":171,"max":[356],"min":[242],"type":"SCALAR"},{"bufferView":10,"componentType":5123,"count":357,"max":[599],"min":[357],"type":"SCALAR"},{"bufferView":11,"componentType":5123,"count":480,"max":[919],"min":[600],"type":"SCALAR"},{"bufferView":12,"componentType":5123,"count":318,"max":[1147],"min":[920],"type":"SCALAR"},{"bufferView":13,"componentType":5123,"count":174,"max":[1265],"min":[1148],"type":"SCALAR"},{"bufferView":14,"componentType":5123,"count":357,"max":[1508],"min":[1266],"type":"SCALAR"},{"bufferView":15,"componentType":5123,"count":480,"max":[1828],"min":[1509],"type":"SCALAR"},{"bufferView":16,"componentType":5123,"count":318,"max":[2056],"min":[1829],"type":"SCALAR"},{"bufferView":17,"componentType":5123,"count":3,"max":[2059],"min":[2057],"type":"SCALAR"},{"bufferView":18,"componentType":5126,"count":10,"max":[1,0.5299192667007446,0,0,0.5299192667007446,1,0,0,0,0,1,0,0.3245866298675537,0.4015046954154968,0,1],"min":[-0.9993908405303955,-0.5299192667007446,0,0,-0.5299192667007446,-0.9993908405303955,0,0,0,0,1,0,-0.3245866298675537,-0.5562499761581421,0,1],"type":"MAT4"},{"bufferView":19,"componentType":5126,"count":3,"max":[0.7916666865348816],"min":[0],"type":"SCALAR"},{"bufferView":20,"componentType":5126,"count":3,"max":[0.04074179381132126,0.1420835256576538,0.9612616896629333,0.27563735842704773],"min":[-0.049047887325286865,-0.1710503101348877,0.9459206461906433,0.27123838663101196],"type":"VEC4"},{"bufferView":21,"componentType":5126,"count":3,"max":[0.7916666865348816],"min":[0],"type":"SCALAR"},{"bufferView":22,"componentType":5126,"count":3,"max":[0.05495325103402138,0.1420835256576538,-0.9419640898704529,0.27563735842704773],"min":[-0.04074179381132126,-0.19164475798606873,-0.9612616896629333,0.2701038420200348],"type":"VEC4"},{"bufferView":23,"componentType":5126,"count":3,"max":[0.7916666865348816],"min":[0],"type":"SCALAR"},{"bufferView":24,"componentType":5126,"count":3,"max":[0.005248039960861206,0.2839720845222473,-0.9535716772079468,0.017452405765652657],"min":[-0.0049567511305212975,-0.30066001415252686,-0.9998477101325989,0.016644656658172607],"type":"VEC4"},{"bufferView":25,"componentType":5126,"count":3,"max":[0.7916666865348816],"min":[0],"type":"SCALAR"},{"bufferView":26,"componentType":5126,"count":3,"max":[0.0019756685942411423,0.11318597197532654,0.9998477101325989,0.017452405765652657],"min":[-0.003330076113343239,-0.1907799392938614,0.981477677822113,0.017131756991147995],"type":"VEC4"},{"bufferView":27,"componentType":5126,"count":3,"max":[0.7916666865348816],"min":[0],"type":"SCALAR"},{"bufferView":28,"componentType":5126,"count":3,"max":[0,0,0,1],"min":[-0.1993679404258728,0,0,0.9799246788024902],"type":"VEC4"},{"bufferView":29,"componentType":5126,"count":3,"max":[0.7916666865348816],"min":[0],"type":"SCALAR"},{"bufferView":30,"componentType":5126,"count":3,"max":[0.03489949554204941,0,0,1],"min":[-0.22495105862617493,0,0,0.9743700623512268],"type":"VEC4"},{"bufferView":31,"componentType":5126,"count":3,"max":[0.7916666865348816],"min":[0],"type":"SCALAR"},{"bufferView":32,"componentType":5126,"count":3,"max":[0.06540312618017197,0,0,1],"min":[0,0,0,0.9978589415550232],"type":"VEC4"}],"materials":[{"pbrMetallicRoughness":{"metallicFactor":0,"roughnessFactor":1,"baseColorTexture":{"index":0}},"alphaMode":"MASK","alphaCutoff":0.05,"doubleSided":true},{"pbrMetallicRoughness":{"metallicFactor":0,"roughnessFactor":1,"baseColorTexture":{"index":1}},"alphaMode":"MASK","alphaCutoff":0.05,"doubleSided":true},{"pbrMetallicRoughness":{"metallicFactor":0,"roughnessFactor":1,"baseColorTexture":{"index":2}},"alphaMode":"MASK","alphaCutoff":0.05,"doubleSided":true},{"pbrMetallicRoughness":{"metallicFactor":0,"roughnessFactor":1,"baseColorTexture":{"index":3}},"alphaMode":"MASK","alphaCutoff":0.05,"doubleSided":true}],"textures":[{"sampler":0,"source":0,"name":"face.png"},{"sampler":1,"source":1,"name":"shirt.png"},{"sampler":2,"source":2,"name":"pants.png"},{"sampler":3,"source":3,"name":"hair.png"}],"samplers":[{"magFilter":9728,"minFilter":9728,"wrapS":33071,"wrapT":33071},{"magFilter":9728,"minFilter":9728,"wrapS":33071,"wrapT":33071},{"magFilter":9728,"minFilter":9728,"wrapS":33071,"wrapT":33071},{"magFilter":9728,"minFilter":9728,"wrapS":33071,"wrapT":33071}],"images":[{"mimeType":"image/png","uri":"data:image/png;base64,"},{"mimeType":"image/png","uri":"data:image/png;base64,"},{"mimeType":"image/png","uri":"data:image/png;base64,"},{"mimeType":"image/png","uri":"data:image/png;base64,"}],"meshes":[{"primitives":[{"mode":4,"attributes":{"POSITION":0,"NORMAL":1,"TEXCOORD_0":2,"JOINTS_0":3,"WEIGHTS_0":4},"indices":5,"material":0},{"mode":4,"attributes":{"POSITION":0,"NORMAL":1,"TEXCOORD_0":2,"JOINTS_0":3,"WEIGHTS_0":4},"indices":6,"material":1},{"mode":4,"attributes":{"POSITION":0,"NORMAL":1,"TEXCOORD_0":2,"JOINTS_0":3,"WEIGHTS_0":4},"indices":7,"material":2},{"mode":4,"attributes":{"POSITION":0,"NORMAL":1,"TEXCOORD_0":2,"JOINTS_0":3,"WEIGHTS_0":4},"indices":8,"material":3},{"mode":4,"attributes":{"POSITION":0,"NORMAL":1,"TEXCOORD_0":2,"JOINTS_0":3,"WEIGHTS_0":4},"indices":9,"material":0},{"mode":4,"attributes":{"POSITION":0,"NORMAL":1,"TEXCOORD_0":2,"JOINTS_0":3,"WEIGHTS_0":4},"indices":10,"material":1},{"mode":4,"attributes":{"POSITION":0,"NORMAL":1,"TEXCOORD_0":2,"JOINTS_0":3,"WEIGHTS_0":4},"indices":11,"material":2},{"mode":4,"attributes":{"POSITION":0,"NORMAL":1,"TEXCOORD_0":2,"JOINTS_0":3,"WEIGHTS_0":4},"indices":12,"material":3},{"mode":4,"attributes":{"POSITION":0,"NORMAL":1,"TEXCOORD_0":2,"JOINTS_0":3,"WEIGHTS_0":4},"indices":13,"material":0},{"mode":4,"attributes":{"POSITION":0,"NORMAL":1,"TEXCOORD_0":2,"JOINTS_0":3,"WEIGHTS_0":4},"indices":14,"material":1},{"mode":4,"attributes":{"POSITION":0,"NORMAL":1,"TEXCOORD_0":2,"JOINTS_0":3,"WEIGHTS_0":4},"indices":15,"material":2},{"mode":4,"attributes":{"POSITION":0,"NORMAL":1,"TEXCOORD_0":2,"JOINTS_0":3,"WEIGHTS_0":4},"indices":16,"material":3},{"mode":4,"attributes":{"POSITION":0,"NORMAL":1,"TEXCOORD_0":2,"JOINTS_0":3,"WEIGHTS_0":4},"indices":17,"material":0}]}],"skins":[{"inverseBindMatrices":18,"joints":[1,0,3,2,5,4,7,6,9,8],"skeleton":1}],"animations":[{"name":"animation","samplers":[{"input":19,"output":20,"interpolation":"LINEAR"},{"input":21,"output":22,"interpolation":"LINEAR"},{"input":23,"output":24,"interpolation":"LINEAR"},{"input":25,"output":26,"interpolation":"LINEAR"},{"input":27,"output":28,"interpolation":"LINEAR"},{"input":29,"output":30,"interpolation":"LINEAR"},{"input":31,"output":32,"interpolation":"LINEAR"}],"channels":[{"sampler":0,"target":{"node":3,"path":"rotation"}},{"sampler":1,"target":{"node":7,"path":"rotation"}},{"sampler":2,"target":{"node":1,"path":"rotation"}},{"sampler":3,"target":{"node":9,"path":"rotation"}},{"sampler":4,"target":{"node":0,"path":"rotation"}},{"sampler":5,"target":{"node":8,"path":"rotation"}},{"sampler":6,"target":{"node":4,"path":"rotation"}}]}]}